<svg width="45" height="45" viewBox="0 0 45 45" fill="none" xmlns="http://www.w3.org/2000/svg">
<path fill-rule="evenodd" clip-rule="evenodd" d="M22.5 45C34.9264 45 45 34.9264 45 22.5C45 10.0736 34.9264 0 22.5 0C10.0736 0 0 10.0736 0 22.5C0 34.9264 10.0736 45 22.5 45Z" fill="white"/>
<path d="M12.5143 22.4857C13.2 23.1714 14.2286 23.1714 14.9143 22.4857L20.5714 16.8286V33.2857C20.5714 34.3143 21.2571 35 22.2857 35C23.3143 35 24 34.3143 24 33.2857V16.8286L29.6571 22.4857C30.3429 23.1714 31.3714 23.1714 32.0571 22.4857C32.7429 21.8 32.7429 20.7714 32.0571 20.0857L23.4857 11.5143C23.1429 11.1714 22.8 11 22.2857 11C21.7714 11 21.4286 11.1714 21.0857 11.5143L12.5143 20.0857C11.8286 20.7714 11.8286 21.8 12.5143 22.4857Z" fill="#6C933E"/>
</svg>
